<svg width="698" height="331" viewBox="0 0 698 331" fill="none" xmlns="http://www.w3.org/2000/svg">
<path d="M49 315C-68.1573 268.137 48.2405 51.5938 169 15C213.849 1.40941 248.408 -8.41845 289 15C328.448 37.7586 303.457 115 349 115C394.543 115 369.552 37.7586 409 15C449.592 -8.41845 484.151 1.40942 529 15C649.76 51.5938 766.157 268.137 649 315C605.489 332.404 571.372 335.018 529 315C455.27 280.167 550.544 115 469 115C387.456 115 482.73 280.167 409 315C366.628 335.018 331.372 335.018 289 315C215.27 280.167 310.544 115 229 115C147.456 115 242.73 280.167 169 315C126.628 335.018 92.5111 332.404 49 315Z" fill="white"/>
</svg>
